<?xml version="1.0" encoding="UTF-8"?>
<svg version="1.1" xmlns="http://www.w3.org/2000/svg" width="64" height="64">
<path d="M0 0 C0.75732422 0.00644531 1.51464844 0.01289062 2.29492188 0.01953125 C3.47344727 0.04466797 3.47344727 0.04466797 4.67578125 0.0703125 C5.47306641 0.07933594 6.27035156 0.08835938 7.09179688 0.09765625 C9.05742025 0.12119665 11.022889 0.15706703 12.98828125 0.1953125 C12.98828125 4.1553125 12.98828125 8.1153125 12.98828125 12.1953125 C9.5703125 12.78125 9.5703125 12.78125 6.15234375 13.3671875 C3.88726659 14.00695788 3.88726659 14.00695788 2.76171875 15.8984375 C1.73115809 18.75765931 1.73115809 18.75765931 0.98828125 24.1953125 C5.60828125 24.1953125 10.22828125 24.1953125 14.98828125 24.1953125 C14.65828125 28.1553125 14.32828125 32.1153125 13.98828125 36.1953125 C9.69828125 36.1953125 5.40828125 36.1953125 0.98828125 36.1953125 C0.98828125 45.4353125 0.98828125 54.6753125 0.98828125 64.1953125 C-2.97171875 64.1953125 -6.93171875 64.1953125 -11.01171875 64.1953125 C-11.01171875 54.9553125 -11.01171875 45.7153125 -11.01171875 36.1953125 C-14.97171875 36.1953125 -18.93171875 36.1953125 -23.01171875 36.1953125 C-23.01171875 32.2353125 -23.01171875 28.2753125 -23.01171875 24.1953125 C-19.05171875 24.1953125 -15.09171875 24.1953125 -11.01171875 24.1953125 C-11.058125 23.10992188 -11.10453125 22.02453125 -11.15234375 20.90625 C-11.18988362 19.46096519 -11.22628139 18.01565039 -11.26171875 16.5703125 C-11.29523437 15.85746094 -11.32875 15.14460937 -11.36328125 14.41015625 C-11.45891601 9.19806166 -10.45930516 6.32497536 -7.01171875 2.1953125 C-3.96490814 0.16410543 -3.41053551 -0.05128625 0 0 Z " fill="#3A5897" transform="translate(35.01171875,-0.1953125)"/>
</svg>
