<?xml version="1.0" encoding="UTF-8"?>
<svg version="1.1" xmlns="http://www.w3.org/2000/svg" width="64" height="64">
<path d="M0 0 C1.52548521 -0.01148928 3.05093119 -0.03189281 4.57617188 -0.06152344 C21.54165841 -0.39093249 21.54165841 -0.39093249 27.11401367 4.29516602 C30.60446006 9.36191766 31.71606553 13.20238318 31.64526367 19.38891602 C31.64909058 20.13927124 31.65291748 20.88962646 31.65686035 21.66271973 C31.65956596 23.23927157 31.65229988 24.81586935 31.63549805 26.39233398 C31.61406559 28.78935948 31.63534234 31.18338868 31.66088867 33.58032227 C31.65824515 35.12069339 31.65311966 36.66106266 31.64526367 38.20141602 C31.6533606 38.90890991 31.66145752 39.61640381 31.6697998 40.34533691 C31.55913196 46.29276131 29.83375771 50.63937636 25.53588867 54.83618164 C19.14929399 58.14139361 12.30708977 57.89972055 5.27807617 57.81665039 C3.11808007 57.79520639 0.96140848 57.81651499 -1.19848633 57.84204102 C-8.70654515 57.85764387 -14.57137567 57.6144536 -20.88598633 53.29516602 C-26.98257961 45.79166659 -26.09952319 38.33415135 -26.13598633 29.04516602 C-26.15661133 27.74708008 -26.17723633 26.44899414 -26.19848633 25.11157227 C-26.26022106 9.97112849 -26.26022106 9.97112849 -21.46899414 4.75146484 C-15.07237464 -0.88059881 -8.01758445 0.04202178 0 0 Z M-17.88598633 10.29516602 C-20.12932807 14.78184949 -19.19718007 21.28923008 -19.23608398 26.27050781 C-19.25262994 27.82339479 -19.27990274 29.37620602 -19.31811523 30.92871094 C-19.37303047 33.17235643 -19.39477771 35.41421927 -19.40942383 37.65844727 C-19.4320932 38.34820145 -19.45476257 39.03795563 -19.4781189 39.74861145 C-19.46134433 43.59701142 -18.98330848 45.17420732 -16.54077148 48.20996094 C-10.83611211 52.6906944 -3.94919092 51.51738542 2.98901367 51.54516602 C4.26905273 51.56579102 5.5490918 51.58641602 6.86791992 51.60766602 C8.10155273 51.61282227 9.33518555 51.61797852 10.60620117 51.62329102 C12.297854 51.63730957 12.297854 51.63730957 14.02368164 51.65161133 C18.37223376 51.1500403 20.81201537 49.56995785 23.90161133 46.54492188 C25.60075848 43.39195349 25.50275668 40.86872248 25.51245117 37.29907227 C25.51675644 36.29323341 25.51675644 36.29323341 25.52114868 35.26707458 C25.52318488 33.85252027 25.51768597 32.43793752 25.50512695 31.0234375 C25.48908999 28.86792412 25.50497533 26.71429261 25.52416992 24.55883789 C25.52218692 23.18057857 25.51834205 21.80232042 25.51245117 20.42407227 C25.50906738 19.17698486 25.50568359 17.92989746 25.50219727 16.64501953 C25.0777513 12.98223773 24.44510993 11.13724417 22.11401367 8.29516602 C16.27495625 4.97844597 9.18416425 5.92654919 2.67651367 5.92016602 C1.36618164 5.89567383 0.05584961 5.87118164 -1.29418945 5.84594727 C-3.19394531 5.84014648 -3.19394531 5.84014648 -5.13208008 5.83422852 C-6.28377686 5.82601074 -7.43547363 5.81779297 -8.62207031 5.80932617 C-12.5913446 6.40015988 -14.76657549 7.81867397 -17.88598633 10.29516602 Z " fill="#000000" transform="translate(28.885986328125,4.704833984375)"/>
<path d="M0 0 C3.44779221 2.43901934 5.43596512 5.18291035 6.6875 9.21484375 C7.55804281 14.519714 6.76600698 18.29778813 4 23 C-0.85049148 27.49557746 -3.9956835 28.3611871 -10.4609375 28.27734375 C-15.52980798 27.72366713 -18.12645862 24.98848103 -21.375 21.3125 C-23.48461416 17.01213267 -23.80979344 13.70334572 -23 9 C-21.63327861 5.20679999 -19.76194055 2.57145541 -16.5 0.125 C-10.693249 -2.48803795 -5.97612339 -2.19281378 0 0 Z M-15 7.5625 C-17.28116946 10.86008379 -17.28116946 10.86008379 -17.125 14.625 C-15.77321363 18.6803591 -14.78644566 20.02446313 -11 22 C-6.99123025 22 -4.82576942 21.63019245 -1.625 19.1875 C0.04496559 16.9394694 0.83141701 15.78161935 1 13 C0.22409964 10.10800776 -0.64634016 8.37985686 -2.6875 6.1875 C-7.57706994 3.67663976 -10.85663233 4.02337345 -15 7.5625 Z " fill="#000000" transform="translate(40,20)"/>
<path d="M0 0 C1.65 0 3.3 0 5 0 C5.66 1.32 6.32 2.64 7 4 C6.01 5.485 6.01 5.485 5 7 C2.375 7.1875 2.375 7.1875 0 7 C-1.125 2.25 -1.125 2.25 0 0 Z " fill="#000000" transform="translate(44,15)"/>
</svg>
