<?xml version="1.0" encoding="UTF-8"?>
<svg version="1.1" xmlns="http://www.w3.org/2000/svg" width="64" height="64">
<path d="M0 0 C8.34468007 4.97590182 13.53387008 11.86345977 16.109375 21.2578125 C17.10789012 32.35758522 16.45884702 41.9922991 9.359375 51.0703125 C3.70168013 57.1280464 -3.34488592 60.84888618 -11.625 61.59375 C-22.35447774 61.83515993 -31.19802606 60.58332943 -39.359375 52.9609375 C-46.75303791 44.73737365 -48.47252567 36.02335615 -48.203125 25.24609375 C-47.72879865 16.86039919 -44.11592977 9.8548755 -37.890625 4.2578125 C-27.15195714 -3.81766573 -12.32399863 -5.91386512 0 0 Z " fill="#1DB7EB" transform="translate(47.890625,2.7421875)"/>
<path d="M0 0 C1.63001953 0.16628906 1.63001953 0.16628906 3.29296875 0.3359375 C4.12441406 0.43132813 4.95585938 0.52671875 5.8125 0.625 C5.8125 2.275 5.8125 3.925 5.8125 5.625 C4.8225 5.955 3.8325 6.285 2.8125 6.625 C2.93625 8.0790625 2.93625 8.0790625 3.0625 9.5625 C3.04036332 15.01919071 1.00386994 20.1454499 -2.61328125 24.23828125 C-8.09577106 29.04077232 -12.74933854 29.84734808 -19.78515625 29.98828125 C-22.65197879 29.55476174 -24.03082164 28.51271616 -26.1875 26.625 C-23.5475 25.965 -20.9075 25.305 -18.1875 24.625 C-18.1875 23.965 -18.1875 23.305 -18.1875 22.625 C-19.5075 22.295 -20.8275 21.965 -22.1875 21.625 C-22.1875 20.305 -22.1875 18.985 -22.1875 17.625 C-22.868125 16.965 -23.54875 16.305 -24.25 15.625 C-24.889375 14.965 -25.52875 14.305 -26.1875 13.625 C-25.875 11.5 -25.875 11.5 -25.1875 9.625 C-25.5175 8.965 -25.8475 8.305 -26.1875 7.625 C-26.227492 5.62539988 -26.23096799 3.62452758 -26.1875 1.625 C-23.6660146 2.78876249 -21.58397953 4.05796034 -19.3125 5.6875 C-16.11418681 7.67045418 -13.89449162 8.27195318 -10.1875 8.625 C-10.084375 7.51125 -9.98125 6.3975 -9.875 5.25 C-9.648125 4.05375 -9.42125 2.8575 -9.1875 1.625 C-5.54331659 -0.80445561 -4.25826636 -0.4578781 0 0 Z " fill="#F8FCFE" transform="translate(42.1875,17.375)"/>
</svg>
